<?xml version="1.0" encoding="utf-8"?>
<svg
    version="1.1"
    xmlns="http://www.w3.org/2000/svg"
    xmlns:xlink="http://www.w3.org/1999/xlink"
    width="985px"
    height="855px"
    viewBox="0 0 98 85"
    fill="currentColor"
  >
  <defs></defs>
  <path
    d="M97,51c-2.02,4.98-8.33,5.67-14,7c-0.609,6.29,3.05,10.95-1,16c-6.41-0.26-7.471-5.859-7-13c-1,0-2,0-3,0
c-2.09,2.77,0.9,4.52,0,8c-1.12,4.34-7.88,7.91-11,7c-2.18-0.641-5.96-6.63-5-12c2.82-2.71,2.76,3.12,6,3c5.05-7.84-9.63-8.55-8-17
c1.24-6.42,11.66-9.66,15-1c1.54,4.21-5.17,0.16-5,3c-0.279,1.62,0.95,1.72,1,3c2.52,0.77,1.68-2.16,3-3c1.859-1.17,3.09-0.75,6-1
c2.45-2.55,1.08-8.92,4-11c3.87,0.46,6.08,2.59,6,7C91.01,46.109,94.3,46.05,97,51z"
  />
</svg>
